IKResults
version=1
nRows=17
nColumns=17
inDegrees=yes

Units are S.I. units (second, meters, Newtons, ...)
If the header above contains a line with 'inDegrees', this indicates whether rotational values are in degrees (yes) or radians (no).

endheader
time	ground_to_pelvis_rx	ground_to_pelvis_ry	ground_to_pelvis_rz	ground_to_pelvis_tx	ground_to_pelvis_ty	ground_to_pelvis_tz	rx	ry	rz	femur_l_to_tibia_l_rz	tibia_l_to_metatarsal_l_rz	rx	ry	rz	femur_r_to_tibia_r_rz	tibia_r_to_metatarsal_r_rz
     17.75000000	     43.87181387	     46.77768373	    -39.88090923	     -0.56530953	     -0.33124951	     -3.36779363	    -74.70624764	     33.88612963	     13.63857488	     70.08642043	     -4.93618201	    -50.78948208	      1.66483114	     14.70895667	     42.61144592	     23.92284657
     17.76700000	     43.56643497	     46.19882641	    -39.34220113	     -0.55656709	     -0.33113488	     -3.36441900	    -77.01283958	     37.27902613	     13.84051832	     67.42537805	     -3.96240431	    -49.54718002	      1.52552984	     14.22414226	     42.27970812	     24.34362437
     17.78300000	     43.41725888	     46.03072385	    -39.21675906	     -0.54799478	     -0.33167333	     -3.35953641	    -78.44391358	     39.88641665	     13.36141663	     63.73093718	     -2.41443200	    -48.31719199	      1.17724628	     13.76353249	     42.21147283	     25.00921853
     17.80000000	     43.57365339	     46.01957691	    -39.45443934	     -0.53977776	     -0.33227973	     -3.35359468	    -79.56381366	     41.99544550	     12.85335987	     59.27859246	     -0.38960454	    -46.92591641	      0.36020657	     13.26566117	     41.99113252	     25.46246904
     17.81700000	     43.73066919	     46.36359123	    -39.26629778	     -0.53018640	     -0.33352183	     -3.34836177	    -79.77392793	     43.70697648	     11.99360992	     53.93589858	      3.18144901	    -45.19437067	     -0.19325318	     12.35253109	     41.70393801	     25.80359503
     17.83300000	     44.25828793	     46.84148206	    -39.15892984	     -0.52072283	     -0.33445274	     -3.34366587	    -78.64188427	     44.50518203	     10.02137066	     47.94021135	      6.49305276	    -43.58062215	     -0.33966643	     11.42009898	     41.43429168	     26.12702549
     17.85000000	     44.62451228	     47.78848955	    -39.34511754	     -0.51120353	     -0.33582723	     -3.33688959	    -76.71166055	     44.64258675	      8.19450549	     41.78632826	     10.24010030	    -41.26397161	     -2.15049958	      9.84219688	     40.78267241	     26.59304635
     17.86700000	     45.04335772	     48.62145980	    -39.87671717	     -0.50321062	     -0.33766049	     -3.32940953	    -74.92285005	     43.39505715	      6.42677121	     36.43580716	     13.60809286	    -39.27086317	     -3.06514500	      9.35568916	     40.17559749	     27.10859770
     17.88300000	     45.17026172	     49.66254343	    -40.02931835	     -0.49466669	     -0.34050098	     -3.32194943	    -72.77131237	     42.26272543	      5.15308822	     31.51381827	     17.25069926	    -37.06918413	     -3.96171427	      8.86802047	     39.60318850	     27.69915097
     17.90000000	     44.99978922	     50.99835630	    -40.78368626	     -0.48758478	     -0.34443685	     -3.31117368	    -69.70420011	     38.71944442	      3.54182108	     27.08281818	     19.67036883	    -34.84432606	     -5.36891682	      9.24692177	     39.21342609	     28.87831963
     17.91700000	     42.98042977	     52.08601991	    -40.86446630	     -0.48041409	     -0.35065404	     -3.29725561	    -68.39962759	     37.67263805	      4.79753158	     28.53176816	     16.80699584	    -32.38078502	     -6.48923293	     10.79498266	     39.27361950	     30.34132436
     17.93300000	     40.91407197	     53.28830737	    -41.27553940	     -0.47457398	     -0.35619766	     -3.28149152	    -67.15686849	     34.31937359	      5.25886246	     31.92473376	     12.57060750	    -30.36705753	     -7.61495161	     12.90340849	     39.37087880	     33.03917053
     17.95000000	     40.98469710	     54.11086891	    -42.45655558	     -0.47053416	     -0.35772287	     -3.27036156	    -66.14582032	     33.43559092	      5.03312283	     32.47878214	     11.09388725	    -29.72444035	     -7.49422353	     14.88357771	     38.86912919	     36.42426617
     17.96700000	     43.77042371	     55.43394838	    -46.49456277	     -0.47028381	     -0.35686449	     -3.25712183	    -66.16954281	     30.76614663	      4.21215986	     33.62450740	     10.48602521	    -30.04968350	     -8.35025584	     17.23527913	     38.47225602	     39.39703238
     17.98300000	     48.02088891	     56.44325546	    -52.34887698	     -0.47238580	     -0.35405770	     -3.24175042	    -67.33589087	     26.51906115	      3.79586056	     35.44623827	     10.03384221	    -31.31785854	     -9.33647014	     20.23191101	     38.14809792	     42.86337788
     18.00000000	     53.07503655	     57.51232732	    -57.94097586	     -0.47192815	     -0.35097580	     -3.22954878	    -67.78282942	     25.22703334	      3.37387742	     36.16002519	     10.26047060	    -33.26310524	    -10.47151564	     21.68585806	     38.78768776	     45.55052936
     18.01700000	     58.41419481	     58.39503729	    -63.58172987	     -0.47015298	     -0.34747773	     -3.21757570	    -68.27388988	     24.86119874	      3.13521516	     36.87439552	     10.87956198	    -35.48624864	    -11.64229309	     22.17777090	     39.31342739	     49.09503232
